<?xml version="1.0" encoding="utf-8"?>
<!-- Generator: Adobe Illustrator 27.0.0, SVG Export Plug-In . SVG Version: 6.00 Build 0)  -->
<svg version="1.1" id="Layer_1" xmlns="http://www.w3.org/2000/svg" xmlns:xlink="http://www.w3.org/1999/xlink" x="0px" y="0px"
	 viewBox="0 0 40 40" style="enable-background:new 0 0 40 40;" xml:space="preserve">
<style type="text/css">
	.st0{fill:#FFFFFF;}
</style>
<path class="st0" d="M12.99,39.01c-0.93,0-1.71-0.32-2.36-0.97c-0.65-0.65-0.97-1.44-0.97-2.36c0-0.93,0.32-1.71,0.97-2.36
	c0.65-0.65,1.44-0.97,2.36-0.97c0.93,0,1.71,0.32,2.36,0.97c0.65,0.65,0.97,1.44,0.97,2.36c0,0.93-0.32,1.71-0.97,2.36
	C14.7,38.69,13.92,39.01,12.99,39.01z M31.52,39.01c-0.93,0-1.71-0.32-2.36-0.97c-0.65-0.65-0.97-1.44-0.97-2.36
	c0-0.93,0.32-1.71,0.97-2.36c0.65-0.65,1.44-0.97,2.36-0.97c0.93,0,1.71,0.32,2.36,0.97c0.65,0.65,0.97,1.44,0.97,2.36
	c0,0.93-0.32,1.71-0.97,2.36C33.23,38.69,32.44,39.01,31.52,39.01z M9.52,4.65h25.94c1.11,0,1.96,0.49,2.55,1.48
	c0.59,0.99,0.6,1.99,0.05,3.01l-5.47,9.91c-0.4,0.65-0.9,1.18-1.51,1.6c-0.6,0.42-1.29,0.63-2.06,0.63H15.3l-2.27,4.31h22.32v3.8
	H12.53c-1.54,0-2.65-0.52-3.31-1.57c-0.66-1.05-0.64-2.19,0.07-3.43l2.83-5.19L5.35,4.79h-3.8v-3.8H7.8L9.52,4.65z"/>
</svg>
